<svg width="210" height="60" viewBox="0 0 210 60" fill="none" xmlns="http://www.w3.org/2000/svg">
<path d="M16.716 26.672C16.716 27.8107 16.4547 28.856 15.932 29.808C15.4093 30.7413 14.6067 31.4973 13.524 32.076C12.4413 32.6547 11.0973 32.944 9.492 32.944H6.524V40H1.736V20.344H9.492C11.06 20.344 12.3853 20.6147 13.468 21.156C14.5507 21.6973 15.3627 22.444 15.904 23.396C16.4453 24.348 16.716 25.44 16.716 26.672ZM9.128 29.136C10.0427 29.136 10.724 28.9213 11.172 28.492C11.62 28.0627 11.844 27.456 11.844 26.672C11.844 25.888 11.62 25.2813 11.172 24.852C10.724 24.4227 10.0427 24.208 9.128 24.208H6.524V29.136H9.128ZM31.4447 36.528H24.1087L22.9327 40H17.9207L25.0327 20.344H30.5767L37.6887 40H32.6207L31.4447 36.528ZM30.2127 32.832L27.7767 25.636L25.3687 32.832H30.2127ZM49.8772 40L45.7892 32.58H44.6412V40H39.8532V20.344H47.8892C49.4385 20.344 50.7545 20.6147 51.8372 21.156C52.9385 21.6973 53.7599 22.444 54.3012 23.396C54.8425 24.3293 55.1132 25.3747 55.1132 26.532C55.1132 27.8387 54.7399 29.0053 53.9932 30.032C53.2652 31.0587 52.1825 31.7867 50.7452 32.216L55.2812 40H49.8772ZM44.6412 29.192H47.6092C48.4865 29.192 49.1399 28.9773 49.5692 28.548C50.0172 28.1187 50.2412 27.512 50.2412 26.728C50.2412 25.9813 50.0172 25.3933 49.5692 24.964C49.1399 24.5347 48.4865 24.32 47.6092 24.32H44.6412V29.192ZM70.3548 36.528H63.0188L61.8428 40H56.8308L63.9428 20.344H69.4868L76.5988 40H71.5308L70.3548 36.528ZM69.1228 32.832L66.6868 25.636L64.2788 32.832H69.1228ZM92.9033 20.344V24.18H87.6953V40H82.9073V24.18H77.6993V20.344H92.9033ZM112.33 20.344V40H107.542V31.908H100.094V40H95.3063V20.344H100.094V28.044H107.542V20.344H112.33ZM120.575 24.18V28.156H126.987V31.852H120.575V36.164H127.827V40H115.787V20.344H127.827V24.18H120.575ZM138.047 40.196C136.61 40.196 135.322 39.9627 134.183 39.496C133.045 39.0293 132.13 38.3387 131.439 37.424C130.767 36.5093 130.413 35.408 130.375 34.12H135.471C135.546 34.848 135.798 35.408 136.227 35.8C136.657 36.1733 137.217 36.36 137.907 36.36C138.617 36.36 139.177 36.2013 139.587 35.884C139.998 35.548 140.203 35.0907 140.203 34.512C140.203 34.0267 140.035 33.6253 139.699 33.308C139.382 32.9907 138.981 32.7293 138.495 32.524C138.029 32.3187 137.357 32.0853 136.479 31.824C135.21 31.432 134.174 31.04 133.371 30.648C132.569 30.256 131.878 29.6773 131.299 28.912C130.721 28.1467 130.431 27.148 130.431 25.916C130.431 24.0867 131.094 22.6587 132.419 21.632C133.745 20.5867 135.471 20.064 137.599 20.064C139.765 20.064 141.51 20.5867 142.835 21.632C144.161 22.6587 144.87 24.096 144.963 25.944H139.783C139.746 25.3093 139.513 24.8147 139.083 24.46C138.654 24.0867 138.103 23.9 137.431 23.9C136.853 23.9 136.386 24.0587 136.031 24.376C135.677 24.6747 135.499 25.1133 135.499 25.692C135.499 26.3267 135.798 26.8213 136.395 27.176C136.993 27.5307 137.926 27.9133 139.195 28.324C140.465 28.7533 141.491 29.164 142.275 29.556C143.078 29.948 143.769 30.5173 144.347 31.264C144.926 32.0107 145.215 32.972 145.215 34.148C145.215 35.268 144.926 36.2853 144.347 37.2C143.787 38.1147 142.966 38.8427 141.883 39.384C140.801 39.9253 139.522 40.196 138.047 40.196ZM152.95 20.344V40H148.162V20.344H152.95ZM163.532 40.196C162.094 40.196 160.806 39.9627 159.668 39.496C158.529 39.0293 157.614 38.3387 156.924 37.424C156.252 36.5093 155.897 35.408 155.86 34.12H160.956C161.03 34.848 161.282 35.408 161.712 35.8C162.141 36.1733 162.701 36.36 163.392 36.36C164.101 36.36 164.661 36.2013 165.072 35.884C165.482 35.548 165.688 35.0907 165.688 34.512C165.688 34.0267 165.52 33.6253 165.184 33.308C164.866 32.9907 164.465 32.7293 163.98 32.524C163.513 32.3187 162.841 32.0853 161.964 31.824C160.694 31.432 159.658 31.04 158.856 30.648C158.053 30.256 157.362 29.6773 156.784 28.912C156.205 28.1467 155.916 27.148 155.916 25.916C155.916 24.0867 156.578 22.6587 157.904 21.632C159.229 20.5867 160.956 20.064 163.084 20.064C165.249 20.064 166.994 20.5867 168.32 21.632C169.645 22.6587 170.354 24.096 170.448 25.944H165.268C165.23 25.3093 164.997 24.8147 164.568 24.46C164.138 24.0867 163.588 23.9 162.916 23.9C162.337 23.9 161.87 24.0587 161.516 24.376C161.161 24.6747 160.984 25.1133 160.984 25.692C160.984 26.3267 161.282 26.8213 161.88 27.176C162.477 27.5307 163.41 27.9133 164.68 28.324C165.949 28.7533 166.976 29.164 167.76 29.556C168.562 29.948 169.253 30.5173 169.832 31.264C170.41 32.0107 170.7 32.972 170.7 34.148C170.7 35.268 170.41 36.2853 169.832 37.2C169.272 38.1147 168.45 38.8427 167.368 39.384C166.285 39.9253 165.006 40.196 163.532 40.196ZM175.886 40.224C175.046 40.224 174.355 39.9813 173.814 39.496C173.291 38.992 173.03 38.376 173.03 37.648C173.03 36.9013 173.291 36.276 173.814 35.772C174.355 35.268 175.046 35.016 175.886 35.016C176.707 35.016 177.379 35.268 177.902 35.772C178.443 36.276 178.714 36.9013 178.714 37.648C178.714 38.376 178.443 38.992 177.902 39.496C177.379 39.9813 176.707 40.224 175.886 40.224ZM193.785 36.528H186.449L185.273 40H180.261L187.373 20.344H192.917L200.029 40H194.961L193.785 36.528ZM192.553 32.832L190.117 25.636L187.709 32.832H192.553ZM206.981 20.344V40H202.193V20.344H206.981Z" fill="white"/>
</svg>
